<?xml version="1.0" standalone="no"?>
<!DOCTYPE svg PUBLIC "-//W3C//DTD SVG 20010904//EN"
 "http://www.w3.org/TR/2001/REC-SVG-20010904/DTD/svg10.dtd">
<svg version="1.0" xmlns="http://www.w3.org/2000/svg"
 width="120.000000pt" height="120.000000pt" viewBox="0 0 120.000000 120.000000"
 preserveAspectRatio="xMidYMid meet">
<metadata>
Created by potrace 1.11, written by Peter Selinger 2001-2013
</metadata>
<g transform="translate(0.000000,120.000000) scale(0.100000,-0.100000)"
fill="#000000" stroke="none">
<path d="M817 965 c-114 -39 -174 -144 -165 -288 8 -128 65 -213 162 -242 101
-31 171 -14 240 57 l48 50 -4 -99 c-3 -88 -7 -105 -30 -140 -37 -57 -86 -78
-175 -77 -54 1 -80 7 -106 23 -32 19 -67 72 -67 100 0 6 -10 11 -21 11 -19 0
-21 -4 -16 -37 14 -83 93 -136 205 -136 120 0 185 30 222 103 28 54 30 74 30
280 1 407 2 398 -17 396 -14 -2 -19 -16 -24 -62 -3 -32 -6 -52 -7 -43 -1 9
-21 34 -45 56 -62 57 -150 75 -230 48z m191 -62 c58 -46 87 -113 87 -203 -1
-165 -105 -263 -250 -236 -44 9 -111 67 -130 113 -54 129 -8 293 97 347 52 27
149 16 196 -21z"/>
<path d="M262 957 c-19 -6 -47 -24 -63 -39 -29 -30 -33 -27 -29 20 1 22 -2 23
-47 20 l-48 -3 0 -390 0 -390 45 0 45 0 1 125 c3 177 0 164 23 141 42 -42 83
-56 166 -56 91 0 143 21 189 76 49 57 60 95 60 209 1 118 -15 168 -73 228 -62
64 -176 89 -269 59z m174 -102 c55 -42 77 -101 72 -194 -7 -133 -56 -195 -158
-198 -61 -1 -100 14 -136 55 -64 73 -65 241 -1 314 55 63 157 73 223 23z"/>
</g>
</svg>
