<?xml version="1.0" standalone="no"?>
<!DOCTYPE svg PUBLIC "-//W3C//DTD SVG 20010904//EN"
 "http://www.w3.org/TR/2001/REC-SVG-20010904/DTD/svg10.dtd">
<svg version="1.0" xmlns="http://www.w3.org/2000/svg"
 width="518.000000pt" height="518.000000pt" viewBox="0 0 518.000000 518.000000"
 preserveAspectRatio="xMidYMid meet">
<metadata>
Created by potrace 1.11, written by Peter Selinger 2001-2013
</metadata>
<g transform="translate(0.000000,518.000000) scale(0.100000,-0.100000)"
fill="#000000" stroke="none">
<path d="M733 2962 c-7 -5 -10 -145 -10 -394 l0 -388 47 0 47 0 0 184 c1 167
3 189 22 228 24 50 58 74 118 83 55 8 107 -14 128 -54 8 -17 15 -33 15 -36 0
-3 0 -95 0 -206 l0 -200 48 3 47 3 -1 205 c-1 113 -4 220 -8 239 -23 115 -169
167 -293 106 -28 -14 -54 -32 -57 -40 -15 -39 -21 -3 -20 117 1 73 -1 138 -3
145 -5 12 -63 15 -80 5z"/>
<path d="M2000 2836 l0 -86 -48 0 -49 0 1 -40 c0 -29 5 -40 16 -41 8 -1 27 -2
42 -3 14 0 29 -3 32 -7 3 -3 6 -95 6 -204 2 -261 9 -275 145 -275 l65 0 0 40
c0 22 -3 40 -7 41 -5 0 -25 2 -46 3 -20 1 -42 7 -49 14 -16 16 -18 380 -2 386
6 2 32 3 58 2 l46 -2 0 42 0 43 -57 3 -57 3 -1 80 0 80 -47 3 -48 3 0 -85z"/>
<path d="M245 2740 c-22 -11 -48 -31 -57 -43 -17 -21 -18 -21 -19 -2 -1 11 -1
28 0 38 2 14 -6 17 -47 17 l-48 0 0 -392 1 -393 45 0 45 0 2 100 c0 55 2 120
2 144 l1 45 21 -23 c82 -88 271 -78 352 19 50 59 61 96 61 215 1 104 -1 113
-28 160 -56 96 -107 127 -216 132 -61 3 -83 0 -115 -17z m190 -94 c51 -39 68
-79 73 -171 3 -73 1 -85 -25 -134 -46 -90 -133 -116 -223 -68 -77 41 -112 148
-85 262 14 62 38 97 85 124 50 28 128 23 175 -13z"/>
<path d="M1495 2753 c-34 -8 -110 -64 -134 -99 -60 -87 -72 -231 -28 -327 51
-113 141 -163 272 -155 116 8 192 63 231 169 22 60 22 180 0 247 -22 67 -88
134 -153 156 -43 15 -142 20 -188 9z m181 -105 c106 -72 105 -303 -2 -369
-135 -83 -278 25 -268 203 6 92 50 161 119 186 43 16 112 6 151 -20z"/>
<path d="M2465 2747 c-146 -58 -207 -195 -170 -382 22 -111 134 -195 259 -195
189 0 302 145 275 350 -14 100 -66 177 -148 217 -44 21 -173 28 -216 10z m191
-102 c89 -68 104 -245 28 -334 -54 -62 -126 -77 -201 -40 -60 29 -93 87 -97
171 -7 113 41 204 118 228 47 14 115 3 152 -25z"/>
<path d="M3078 2746 c-116 -41 -175 -145 -166 -289 11 -169 115 -268 266 -254
63 6 102 27 147 79 l37 43 -4 -100 c-4 -116 -23 -157 -86 -196 -53 -32 -173
-33 -224 -1 -32 20 -68 73 -68 101 0 6 -10 11 -21 11 -19 0 -21 -4 -16 -35 14
-85 91 -137 206 -138 136 -1 216 50 241 151 12 51 18 618 6 629 -3 3 -12 3
-21 0 -11 -5 -15 -22 -16 -64 0 -32 -3 -50 -7 -41 -16 40 -74 88 -124 103 -62
18 -101 18 -150 1z m190 -63 c57 -45 85 -111 86 -202 1 -139 -69 -231 -184
-239 -135 -10 -224 93 -216 250 4 72 21 119 61 167 41 48 78 62 153 57 51 -3
71 -9 100 -33z"/>
<path d="M3948 2751 c-72 -23 -120 -77 -133 -150 -5 -29 -3 -32 16 -29 16 2
25 15 35 48 18 60 65 92 144 98 112 8 172 -32 173 -117 0 -27 -5 -57 -13 -65
-16 -20 -66 -33 -156 -40 -39 -4 -85 -10 -102 -15 -114 -33 -161 -137 -107
-241 51 -99 282 -93 350 10 25 38 30 38 32 -2 1 -38 33 -68 72 -68 15 0 30 3
34 6 12 12 -6 34 -28 34 -13 0 -27 5 -31 12 -4 6 -8 105 -8 219 -1 195 -2 209
-22 236 -35 46 -77 65 -157 69 -39 2 -84 -1 -99 -5z m236 -329 c-4 -146 -99
-231 -240 -215 -59 6 -112 44 -115 82 -6 77 12 120 64 144 31 15 53 19 166 32
69 8 92 13 99 20 20 19 28 -1 26 -63z"/>
<path d="M4517 2746 c-45 -16 -72 -39 -99 -81 l-19 -30 1 35 c3 67 1 78 -17
76 -17 -3 -18 -25 -21 -284 l-2 -282 22 0 23 0 -1 188 c-1 204 7 247 53 296
33 36 81 56 132 56 53 0 107 -46 117 -98 4 -20 8 -127 8 -237 1 -194 2 -200
22 -203 20 -3 20 1 21 185 0 107 5 206 12 230 38 139 234 169 285 43 9 -22 15
-44 15 -48 -1 -4 -1 -98 0 -209 1 -198 1 -203 22 -203 20 0 20 3 17 233 -3
259 -8 276 -77 319 -38 24 -117 32 -165 16 -36 -12 -93 -63 -102 -91 -5 -17
-9 -14 -28 19 -11 21 -35 46 -53 56 -42 25 -119 32 -166 14z"/>
<path d="M3528 2731 c-2 -9 -3 -135 -3 -281 l1 -265 22 -3 c22 -3 22 -3 22
180 0 176 1 186 25 234 29 58 85 99 150 109 37 5 45 10 45 27 0 18 -4 20 -40
15 -60 -8 -128 -45 -155 -85 l-24 -35 -3 58 c-2 45 -7 59 -20 61 -9 1 -18 -5
-20 -15z"/>
</g>
</svg>
